# xmcd CD database file
# Generated: Tue Dec 14 00:23:10 2004 by KSCD
# 
# Track frame offsets:
#       150
#       16812
#       44726
#       55202
#       78894
#       97973
#       112047
#       131715
#       155750
#
# Disc length: 2333 seconds
#
# Revision: 2
# Processed by: cddbd v1.5.1PL0 Copyright (c) Steve Scherf et al.
# Submitted via: Kscd 1.2.7
#
DISCID=72091b09
DTITLE=Jackshit - Jackshit
DYEAR=1900
DGENRE=
TTITLE0=Christine's Tune (a.k.a. Devil in Disguise)
TTITLE1=I'm Coming Home
TTITLE2=Ugly and Slouchy
TTITLE3=Down in the Willow Garden
TTITLE4=Older Guys
TTITLE5=I'm Hoping That You're Hoping
TTITLE6=Bull Rider
TTITLE7=You Don't Miss Your Water
TTITLE8=Hold That Critter Down
EXTD=
EXTT0=
EXTT1=
EXTT2=
EXTT3=
EXTT4=
EXTT5=
EXTT6=
EXTT7=
EXTT8=
PLAYORDER=
